# xmcd
#
# Track frame offsets:
#	150
#	12225
#	22154
#	33096
#	46994
#	58749
#	64870
#	80777
#	92456
#	107292
#	116825
#	128059
#	138234
#	147745
#	159816
#
# Disc length: 2269
#
# Revision: 2
# Processed by: cddbd v1.5.1PL0 Copyright (c) Steve Scherf et al.
# Submitted via: audiograbber 1.81.03
# Normalized: r1:DSETVAR1
#
DISCID=c608db0f
DTITLE=Various Artist - Mega Country Vol. 3 CD03
DYEAR=1998
DGENRE=Country
TTITLE0=Johnny Cash - Folsom Prison blues
TTITLE1=Brenda Lee - I'm sorry
TTITLE2=George James - Where we never grow old
TTITLE3=Willie Nelson - Good hearted woman
TTITLE4=Patsy Cline - Today, tomorrow and forever
TTITLE5=Brenda Lee - I'll fly away
TTITLE6=Anne Murray - Both sides now
TTITLE7=Wanda Jackson - Sweet Dreams
TTITLE8=Kenny Rogers - Heed to call
TTITLE9=Lynn Anderson - Snowbird
TTITLE10=Charly Pride - It´s gonna take a little bit longer
TTITLE11=Loretta Lynn - Out of my head and back in my bed
TTITLE12=Ferlin Husky - Truck drivingson of a god
TTITLE13=Willie Nelson - Seven Spanish Angels
TTITLE14=Wanda Jackson - It's only make believe
EXTD=
EXTT0=
EXTT1=
EXTT2=
EXTT3=
EXTT4=
EXTT5=
EXTT6=
EXTT7=
EXTT8=
EXTT9=
EXTT10=
EXTT11=
EXTT12=
EXTT13=
EXTT14=
PLAYORDER=
